<svg width="32" height="32" viewBox="0 0 32 32" fill="none" xmlns="http://www.w3.org/2000/svg">
<path d="M16 29.3333C8.63599 29.3333 2.66666 23.364 2.66666 16C2.66666 8.636 8.63599 2.66667 16 2.66667C18.0701 2.66563 20.112 3.14711 21.9635 4.07289C23.8151 4.99868 25.4254 6.34328 26.6667 8H23.0533C21.5136 6.64235 19.6149 5.75781 17.5849 5.45253C15.555 5.14725 13.4801 5.43421 11.6092 6.27895C9.73827 7.12369 8.15085 8.49035 7.03742 10.2149C5.92398 11.9395 5.33182 13.9487 5.33199 16.0015C5.33216 18.0542 5.92465 20.0634 7.03838 21.7878C8.15211 23.5121 9.73975 24.8785 11.6108 25.723C13.4818 26.5674 15.5568 26.854 17.5867 26.5484C19.6166 26.2428 21.5152 25.3579 23.0547 24H26.668C25.4266 25.6569 23.8161 27.0016 21.9643 27.9274C20.1125 28.8532 18.0703 29.3346 16 29.3333ZM25.3333 21.3333V17.3333H14.6667V14.6667H25.3333V10.6667L32 16L25.3333 21.3333Z" fill="white"/>
</svg>
