<svg width="35" height="35" viewBox="0 0 35 35" fill="none" xmlns="http://www.w3.org/2000/svg">
<path d="M24.7917 26.25C23.1729 26.25 21.875 27.5479 21.875 29.1667C21.875 29.9402 22.1823 30.6821 22.7293 31.2291C23.2763 31.776 24.0181 32.0833 24.7917 32.0833C25.5652 32.0833 26.3071 31.776 26.8541 31.2291C27.4011 30.6821 27.7083 29.9402 27.7083 29.1667C27.7083 28.3931 27.4011 27.6512 26.8541 27.1043C26.3071 26.5573 25.5652 26.25 24.7917 26.25ZM1.45834 2.91666V5.83333H4.37501L9.62501 16.9021L7.64168 20.475C7.42293 20.8833 7.29168 21.3646 7.29168 21.875C7.29168 22.6485 7.59897 23.3904 8.14595 23.9374C8.69293 24.4844 9.43479 24.7917 10.2083 24.7917H27.7083V21.875H10.8208C10.7241 21.875 10.6314 21.8366 10.563 21.7682C10.4947 21.6998 10.4563 21.6071 10.4563 21.5104C10.4563 21.4375 10.4708 21.3792 10.5 21.3354L11.8125 18.9583H22.6771C23.7708 18.9583 24.7333 18.3458 25.2292 17.4562L30.45 8.02083C30.5521 7.7875 30.625 7.53958 30.625 7.29166C30.625 6.90489 30.4714 6.53396 30.1979 6.26047C29.9244 5.98698 29.5534 5.83333 29.1667 5.83333H7.59793L6.22709 2.91666M10.2083 26.25C8.58959 26.25 7.29168 27.5479 7.29168 29.1667C7.29168 29.9402 7.59897 30.6821 8.14595 31.2291C8.69293 31.776 9.43479 32.0833 10.2083 32.0833C10.9819 32.0833 11.7238 31.776 12.2707 31.2291C12.8177 30.6821 13.125 29.9402 13.125 29.1667C13.125 28.3931 12.8177 27.6512 12.2707 27.1043C11.7238 26.5573 10.9819 26.25 10.2083 26.25Z" fill="white"/>
</svg>
